<svg width="22" height="20" viewBox="0 0 22 20" fill="currentColor" xmlns="http://www.w3.org/2000/svg">
<path fill-rule="evenodd" clip-rule="evenodd" d="M3.50001 0.750007L3.45526 0.750004C3.02244 0.749952 2.62561 0.749906 2.3028 0.793307C1.94732 0.8411 1.57159 0.953547 1.26257 1.26257C0.953547 1.57159 0.8411 1.94732 0.793307 2.3028C0.749906 2.62561 0.749952 3.02244 0.750004 3.45526L0.750007 3.50001V16.5L0.750004 16.5448C0.749952 16.9776 0.749906 17.3744 0.793307 17.6972C0.8411 18.0527 0.953547 18.4284 1.26257 18.7374C1.57159 19.0465 1.94732 19.1589 2.3028 19.2067C2.62561 19.2501 3.02244 19.2501 3.45526 19.25L3.50001 19.25H9.36586L9.45526 19.25L9.50001 19.25H11.5H15.3659L15.4553 19.25L15.5 19.25H17.5H18.5L18.5448 19.25C18.9776 19.2501 19.3744 19.2501 19.6972 19.2067C20.0527 19.1589 20.4284 19.0465 20.7374 18.7374C21.0465 18.4284 21.1589 18.0527 21.2067 17.6972C21.2501 17.3744 21.2501 16.9776 21.25 16.5448L21.25 16.5V12.5V3.50001L21.25 3.45526C21.2501 3.02245 21.2501 2.62561 21.2067 2.3028C21.1589 1.94732 21.0465 1.57159 20.7374 1.26257C20.4284 0.953547 20.0527 0.8411 19.6972 0.793307C19.3744 0.749906 18.9776 0.749952 18.5448 0.750004L18.5 0.750007H17.5H15.5L15.4553 0.750004L15.3669 0.750007H11.5H9.50001L9.45526 0.750004L9.36689 0.750007H3.50001ZM6.80087 2.25001H3.50001C3.0074 2.25001 2.71339 2.2516 2.50267 2.27993C2.40611 2.29291 2.35775 2.30821 2.33597 2.31717C2.33093 2.31924 2.32761 2.32086 2.32568 2.32187L2.32324 2.32324L2.32187 2.32568C2.32086 2.32761 2.31924 2.33093 2.31717 2.33597C2.30821 2.35775 2.29291 2.40611 2.27993 2.50267C2.2516 2.71339 2.25001 3.0074 2.25001 3.50001V11.75H6.00001V13.25H2.25001V16.5C2.25001 16.9926 2.2516 17.2866 2.27993 17.4973C2.29291 17.5939 2.30821 17.6423 2.31717 17.664C2.31924 17.6691 2.32086 17.6724 2.32187 17.6743L2.32323 17.6768L2.32568 17.6781C2.32761 17.6792 2.33093 17.6808 2.33597 17.6828C2.35775 17.6918 2.40611 17.7071 2.50267 17.7201C2.71339 17.7484 3.0074 17.75 3.50001 17.75H6.80087C6.79818 17.7324 6.79567 17.7148 6.79331 17.6972C6.74991 17.3744 6.74995 16.9776 6.75 16.5448V16.5448L6.75001 16.5V3.50001L6.75 3.45526V3.45525C6.74995 3.02243 6.74991 2.62561 6.79331 2.3028C6.79567 2.28525 6.79818 2.26765 6.80087 2.25001ZM9.50001 17.75H11.5H12.8009C12.7982 17.7324 12.7957 17.7148 12.7933 17.6972C12.7499 17.3745 12.75 16.9777 12.75 16.5449V16.5449V16.5449V16.5449V16.5449V16.5449V16.5448V16.5448V16.5448V16.5448V16.5448V16.5448V16.5448V16.5448V16.5448L12.75 16.5V12.5V3.50001L12.75 3.45526V3.45525V3.45524V3.45522V3.45521V3.4552V3.45519V3.45518V3.45517V3.45516V3.45514V3.45513V3.45512V3.45511V3.4551C12.75 3.02234 12.7499 2.62557 12.7933 2.3028C12.7957 2.28525 12.7982 2.26765 12.8009 2.25001H11.5H9.50001C9.0074 2.25001 8.71339 2.2516 8.50267 2.27993C8.40611 2.29291 8.35775 2.30821 8.33597 2.31717C8.33093 2.31924 8.32761 2.32086 8.32568 2.32187L8.32324 2.32324L8.32187 2.32568C8.32086 2.32761 8.31924 2.33093 8.31717 2.33597C8.30821 2.35775 8.29291 2.40611 8.27993 2.50267C8.2516 2.71339 8.25001 3.0074 8.25001 3.50001V11.75H12V13.25H8.25001V16.5C8.25001 16.9926 8.2516 17.2866 8.27993 17.4973C8.29291 17.5939 8.30821 17.6423 8.31717 17.664L8.31998 17.6705L8.32187 17.6743L8.32323 17.6768L8.32568 17.6781C8.32761 17.6792 8.33093 17.6808 8.33597 17.6828C8.35775 17.6918 8.40611 17.7071 8.50267 17.7201C8.71339 17.7484 9.0074 17.75 9.50001 17.75ZM17.5 17.75H15.5C15.0074 17.75 14.7134 17.7484 14.5027 17.7201C14.4061 17.7071 14.3578 17.6918 14.336 17.6828C14.3309 17.6808 14.3276 17.6792 14.3257 17.6781L14.3232 17.6768L14.3219 17.6743C14.3209 17.6724 14.3192 17.6691 14.3172 17.664C14.3082 17.6423 14.2929 17.5939 14.2799 17.4973C14.2516 17.2866 14.25 16.9926 14.25 16.5V13.25H19.75V16.5C19.75 16.9926 19.7484 17.2866 19.7201 17.4973C19.7071 17.5939 19.6918 17.6423 19.6828 17.664L19.6798 17.6709L19.6781 17.6743L19.6768 17.6768L19.6743 17.6781C19.6724 17.6792 19.6691 17.6808 19.664 17.6828C19.6423 17.6918 19.5939 17.7071 19.4973 17.7201C19.2866 17.7484 18.9926 17.75 18.5 17.75H17.5ZM19.75 11.75H14.25V3.50001C14.25 3.0074 14.2516 2.71339 14.2799 2.50267C14.2929 2.40611 14.3082 2.35775 14.3172 2.33597C14.3192 2.33093 14.3209 2.32761 14.3219 2.32568L14.3232 2.32324L14.3257 2.32187C14.3276 2.32086 14.3309 2.31924 14.336 2.31717C14.3578 2.30821 14.4061 2.29291 14.5027 2.27993C14.7134 2.2516 15.0074 2.25001 15.5 2.25001H17.5H18.5C18.9926 2.25001 19.2866 2.2516 19.4973 2.27993C19.5939 2.29291 19.6423 2.30821 19.664 2.31717C19.6691 2.31924 19.6724 2.32086 19.6743 2.32187L19.6768 2.32324L19.6781 2.32568C19.6792 2.32761 19.6808 2.33093 19.6828 2.33597C19.6918 2.35775 19.7071 2.40611 19.7201 2.50267C19.7484 2.71339 19.75 3.0074 19.75 3.50001V11.75ZM15.9775 13.75L16 13.75H18L18.0225 13.75C18.1186 13.7499 18.2543 13.7497 18.3743 13.7658C18.5255 13.7862 18.7579 13.8437 18.9571 14.0429C19.1563 14.2421 19.2138 14.4745 19.2342 14.6258C19.2503 14.7457 19.2501 14.8813 19.25 14.9775V14.9775L19.25 15V16L19.25 16.0225V16.0225C19.2501 16.1187 19.2503 16.2543 19.2342 16.3743C19.2138 16.5255 19.1563 16.7579 18.9571 16.9571C18.7579 17.1563 18.5255 17.2138 18.3743 17.2342C18.2543 17.2503 18.1187 17.2501 18.0225 17.25H18.0225L18 17.25H16L15.9775 17.25H15.9775C15.8813 17.2501 15.7457 17.2503 15.6258 17.2342C15.4745 17.2138 15.2421 17.1563 15.0429 16.9571C14.8437 16.7579 14.7862 16.5255 14.7658 16.3743C14.7497 16.2543 14.7499 16.1186 14.75 16.0225L14.75 16V15L14.75 14.9775C14.7499 14.8814 14.7497 14.7457 14.7658 14.6258C14.7862 14.4745 14.8437 14.2421 15.0429 14.0429C15.2421 13.8437 15.4745 13.7862 15.6258 13.7658C15.7457 13.7497 15.8814 13.7499 15.9775 13.75ZM16.25 15.25V15.75H17.75V15.25H16.25ZM15.5 3.75001C15.0858 3.75001 14.75 4.08579 14.75 4.50001C14.75 4.91422 15.0858 5.25001 15.5 5.25001H18.5C18.9142 5.25001 19.25 4.91422 19.25 4.50001C19.25 4.08579 18.9142 3.75001 18.5 3.75001H15.5ZM14.75 7.50001C14.75 7.08579 15.0858 6.75001 15.5 6.75001H18.5C18.9142 6.75001 19.25 7.08579 19.25 7.50001C19.25 7.91422 18.9142 8.25001 18.5 8.25001H15.5C15.0858 8.25001 14.75 7.91422 14.75 7.50001ZM10 13.75L9.97755 13.75C9.88139 13.7499 9.74575 13.7497 9.62575 13.7658C9.47451 13.7862 9.24209 13.8437 9.0429 14.0429C8.84371 14.2421 8.78618 14.4745 8.76585 14.6258C8.74972 14.7457 8.74988 14.8814 8.74999 14.9775V14.9775L8.75001 15V16L8.74999 16.0225V16.0225C8.74988 16.1186 8.74972 16.2543 8.76585 16.3743C8.78618 16.5255 8.84371 16.7579 9.0429 16.9571C9.24209 17.1563 9.47451 17.2138 9.62575 17.2342C9.74575 17.2503 9.88139 17.2501 9.97755 17.25L10 17.25H12V15.75H10.25V15.25H12V13.75H10ZM8.75001 4.50001C8.75001 4.08579 9.08579 3.75001 9.50001 3.75001H12V5.25001H9.50001C9.08579 5.25001 8.75001 4.91422 8.75001 4.50001ZM9.50001 6.75001C9.08579 6.75001 8.75001 7.08579 8.75001 7.50001C8.75001 7.91422 9.08579 8.25001 9.50001 8.25001H12V6.75001H9.50001ZM3.97755 13.75L4.00001 13.75H6.00001V15.25H4.25001V15.75H6.00001V17.25H4.00001L3.97755 17.25C3.88139 17.2501 3.74575 17.2503 3.62575 17.2342C3.47451 17.2138 3.24209 17.1563 3.0429 16.9571C2.84371 16.7579 2.78618 16.5255 2.76585 16.3743C2.74971 16.2543 2.74988 16.1186 2.74999 16.0225L2.75001 16V15L2.74999 14.9775C2.74988 14.8814 2.74971 14.7457 2.76585 14.6258C2.78618 14.4745 2.84371 14.2421 3.0429 14.0429C3.24209 13.8437 3.47451 13.7862 3.62575 13.7658C3.74575 13.7497 3.88139 13.7499 3.97755 13.75ZM3.50001 3.75001C3.08579 3.75001 2.75001 4.08579 2.75001 4.50001C2.75001 4.91422 3.08579 5.25001 3.50001 5.25001H6.00001V3.75001H3.50001ZM2.75001 7.50001C2.75001 7.08579 3.08579 6.75001 3.50001 6.75001H6.00001V8.25001H3.50001C3.08579 8.25001 2.75001 7.91422 2.75001 7.50001Z" />
</svg>
