<svg width="16" height="20" viewBox="0 0 16 20" fill="currentColor" xmlns="http://www.w3.org/2000/svg">
<path fill-rule="evenodd" clip-rule="evenodd" d="M9.29175 1.59923V4.89167C9.29175 5.32409 9.29233 5.60329 9.30969 5.81579C9.32634 6.01954 9.3546 6.09508 9.37349 6.13216C9.4454 6.27329 9.56013 6.38802 9.70126 6.45993C9.73834 6.47882 9.81388 6.50708 10.0176 6.52373C10.2301 6.54109 10.5093 6.54167 10.9417 6.54167H14.2341C14.2192 6.50577 14.2014 6.47104 14.1811 6.43778C14.1455 6.3797 14.093 6.32039 13.8083 6.03572L9.79753 2.02495C9.51286 1.74028 9.45356 1.68778 9.39547 1.65219C9.36227 1.63185 9.32759 1.61415 9.29175 1.59923ZM14.2916 8.04167H10.9417L10.9128 8.04167C10.5175 8.04169 10.1764 8.0417 9.89548 8.01874C9.59897 7.99452 9.30406 7.94103 9.02027 7.79644C8.59691 7.58072 8.2527 7.23652 8.03698 6.81315C7.89239 6.52937 7.8389 6.23445 7.81468 5.93794C7.79172 5.65701 7.79173 5.31594 7.79175 4.92058L7.79175 4.89167V1.54167H3.35825C2.92584 1.54167 2.64663 1.54226 2.43413 1.55962C2.23038 1.57626 2.15484 1.60452 2.11776 1.62342C1.97664 1.69532 1.8619 1.81006 1.79 1.95118C1.7711 1.98826 1.74285 2.0638 1.7262 2.26755C1.70884 2.48005 1.70825 2.75925 1.70825 3.19167V16.8083C1.70825 17.2408 1.70884 17.52 1.7262 17.7325C1.74285 17.9362 1.7711 18.0117 1.79 18.0488C1.8619 18.19 1.97664 18.3047 2.11776 18.3766C2.15484 18.3955 2.23038 18.4237 2.43413 18.4404C2.64663 18.4578 2.92584 18.4583 3.35825 18.4583H12.6416C13.074 18.4583 13.3532 18.4578 13.5657 18.4404C13.7695 18.4237 13.845 18.3955 13.8821 18.3766C14.0232 18.3047 14.1379 18.19 14.2098 18.0488C14.2287 18.0117 14.257 17.9362 14.2736 17.7325C14.291 17.52 14.2916 17.2408 14.2916 16.8083V8.04167ZM8.69329 0.0416332C8.99846 0.0413492 9.26752 0.0410988 9.52885 0.103839C9.75843 0.158957 9.97791 0.249867 10.1792 0.373231C10.4084 0.513659 10.5985 0.704093 10.814 0.920084L10.8582 0.964285L14.869 4.97506L14.9132 5.01922C15.1292 5.23481 15.3196 5.42488 15.46 5.65404C15.5834 5.85535 15.6743 6.07482 15.7294 6.30441C15.7922 6.56574 15.7919 6.8348 15.7916 7.13997L15.7916 7.20245V16.8083V16.8373C15.7916 17.2326 15.7916 17.5737 15.7687 17.8546C15.7444 18.1511 15.6909 18.446 15.5463 18.7298C15.3306 19.1532 14.9864 19.4974 14.5631 19.7131C14.2793 19.8577 13.9844 19.9112 13.6879 19.9354C13.4069 19.9584 13.0658 19.9584 12.6704 19.9583H12.6416H3.35825H3.32942C2.93402 19.9584 2.59293 19.9584 2.31198 19.9354C2.01547 19.9112 1.72056 19.8577 1.43677 19.7131C1.01341 19.4974 0.669204 19.1532 0.453488 18.7298C0.308893 18.446 0.255406 18.1511 0.23118 17.8546C0.208228 17.5737 0.208239 17.2326 0.208252 16.8373V16.8372V16.8083V3.19167V3.16276V3.16274C0.208239 2.76739 0.208228 2.42632 0.23118 2.1454C0.255406 1.84889 0.308893 1.55398 0.453488 1.27019C0.669204 0.846828 1.01341 0.502622 1.43677 0.286907C1.72056 0.142312 2.01547 0.0888246 2.31198 0.0645989C2.59291 0.041646 2.93398 0.0416576 3.32934 0.0416711L3.35825 0.0416718H8.63081L8.69329 0.0416332ZM4.20825 9.79167C3.79404 9.79167 3.45825 10.1275 3.45825 10.5417C3.45825 10.9559 3.79404 11.2917 4.20825 11.2917L11.7916 11.2917C12.2058 11.2917 12.5416 10.9559 12.5416 10.5417C12.5416 10.1275 12.2058 9.79167 11.7916 9.79167L4.20825 9.79167ZM4.20825 13.0417C3.79404 13.0417 3.45825 13.3775 3.45825 13.7917C3.45825 14.2059 3.79404 14.5417 4.20825 14.5417H8.54159C8.9558 14.5417 9.29159 14.2059 9.29159 13.7917C9.29159 13.3775 8.9558 13.0417 8.54159 13.0417H4.20825Z"/>
</svg>
