<svg width="17" height="17" viewBox="0 0 17 17" fill="currentColor" xmlns="http://www.w3.org/2000/svg">
<path fill-rule="evenodd" clip-rule="evenodd" d="M8.4511 0.25H8.50001H8.54892C10.1512 0.249988 11.4205 0.249978 12.4248 0.36868C13.4557 0.490545 14.3044 0.746383 15.0134 1.3282C15.2539 1.52558 15.4744 1.74612 15.6718 1.98663C16.2536 2.69558 16.5095 3.54428 16.6313 4.57525C16.75 5.57946 16.75 6.84881 16.75 8.45105V8.45107V8.45109V8.5V8.54891V8.54893V8.54895C16.75 10.1512 16.75 11.4205 16.6313 12.4248C16.5095 13.4557 16.2536 14.3044 15.6718 15.0134C15.4744 15.2539 15.2539 15.4744 15.0134 15.6718C14.3044 16.2536 13.4557 16.5095 12.4248 16.6313C11.4205 16.75 10.1512 16.75 8.54892 16.75H8.50001H3.00001L2.95526 16.75C2.52245 16.7501 2.12561 16.7501 1.8028 16.7067C1.44732 16.6589 1.07159 16.5465 0.76257 16.2374C0.453547 15.9284 0.341099 15.5527 0.293306 15.1972C0.249905 14.8744 0.249952 14.4776 0.250003 14.0447L0.250007 14V8.5L0.250007 8.45109C0.249994 6.84883 0.249985 5.57947 0.368687 4.57525C0.490551 3.54428 0.746389 2.69558 1.32821 1.98663C1.52559 1.74612 1.74613 1.52558 1.98664 1.3282C2.69559 0.746383 3.54429 0.490545 4.57526 0.36868C5.57947 0.249978 6.84883 0.249988 8.4511 0.25ZM4.75134 1.85831C3.86198 1.96343 3.33563 2.16158 2.93823 2.48772C2.77367 2.62277 2.62277 2.77366 2.48772 2.93822C2.16158 3.33563 1.96344 3.86197 1.85832 4.75133C1.75123 5.65724 1.75001 6.83789 1.75001 8.5V14C1.75001 14.4926 1.7516 14.7866 1.77993 14.9973C1.79291 15.0939 1.8082 15.1423 1.81717 15.164C1.81924 15.1691 1.82086 15.1724 1.82187 15.1743L1.82318 15.1767C1.82278 15.1763 1.82281 15.1763 1.82308 15.1766L1.82311 15.1767L1.82318 15.1767L1.8232 15.1768L1.82322 15.1768L1.82336 15.1769C1.8237 15.1772 1.82369 15.1772 1.82323 15.1768L1.82324 15.1768L1.82568 15.1781C1.82761 15.1791 1.83093 15.1808 1.83597 15.1828C1.85775 15.1918 1.90611 15.2071 2.00267 15.2201C2.21339 15.2484 2.5074 15.25 3.00001 15.25H8.50001C10.1621 15.25 11.3428 15.2488 12.2487 15.1417C13.138 15.0366 13.6644 14.8384 14.0618 14.5123C14.2263 14.3772 14.3772 14.2263 14.5123 14.0618C14.8384 13.6644 15.0366 13.138 15.1417 12.2487C15.2488 11.3428 15.25 10.1621 15.25 8.5C15.25 6.83789 15.2488 5.65724 15.1417 4.75133C15.0366 3.86197 14.8384 3.33563 14.5123 2.93822C14.3772 2.77366 14.2263 2.62277 14.0618 2.48772C13.6644 2.16158 13.138 1.96343 12.2487 1.85831C11.3428 1.75123 10.1621 1.75 8.50001 1.75C6.83789 1.75 5.65725 1.75123 4.75134 1.85831ZM5.25001 7C5.25001 6.58579 5.58579 6.25 6.00001 6.25H11C11.4142 6.25 11.75 6.58579 11.75 7C11.75 7.41421 11.4142 7.75 11 7.75H6.00001C5.58579 7.75 5.25001 7.41421 5.25001 7ZM6.00001 9.25C5.58579 9.25 5.25001 9.58579 5.25001 10C5.25001 10.4142 5.58579 10.75 6.00001 10.75H9.00001C9.41422 10.75 9.75001 10.4142 9.75001 10C9.75001 9.58579 9.41422 9.25 9.00001 9.25H6.00001Z"/>
</svg>
