<svg width="20" height="21" viewBox="0 0 20 21" fill="currentColor" xmlns="http://www.w3.org/2000/svg">
<path fill-rule="evenodd" clip-rule="evenodd" d="M11.25 1.34232C11.25 0.928102 11.5858 0.592316 12 0.592316H19C19.4142 0.592316 19.75 0.928102 19.75 1.34232V8.34232C19.75 8.75653 19.4142 9.09232 19 9.09232H12C11.5858 9.09232 11.25 8.75653 11.25 8.34232V1.34232ZM12.75 2.09232V7.59232H18.25V2.09232H12.75ZM1 11.5923C0.585786 11.5923 0.25 11.9281 0.25 12.3423V19.3423C0.25 19.7565 0.585786 20.0923 1 20.0923H8C8.41421 20.0923 8.75 19.7565 8.75 19.3423V12.3423C8.75 11.9281 8.41421 11.5923 8 11.5923H1ZM1.75 18.5923V13.0923H7.25V18.5923H1.75ZM12 11.5923C11.5858 11.5923 11.25 11.9281 11.25 12.3423V19.3423C11.25 19.7565 11.5858 20.0923 12 20.0923H19C19.4142 20.0923 19.75 19.7565 19.75 19.3423V12.3423C19.75 11.9281 19.4142 11.5923 19 11.5923H12ZM12.75 18.5923V13.0923H18.25V18.5923H12.75ZM1 0.592316C0.585786 0.592316 0.25 0.928102 0.25 1.34232V8.34232C0.25 8.75653 0.585786 9.09232 1 9.09232H8C8.41421 9.09232 8.75 8.75653 8.75 8.34232V1.34232C8.75 0.928102 8.41421 0.592316 8 0.592316H1ZM1.75 7.59232V2.09232H7.25V7.59232H1.75Z"/>
</svg>
