<svg width="44" height="44" viewBox="0 0 44 44" fill="none" xmlns="http://www.w3.org/2000/svg">
<rect width="44" height="44" rx="22" fill="#CCE3FF"/>
<path d="M12.1262 31.8736L12.8333 31.1665L12.1262 31.8736C12.495 32.2424 12.9469 32.2357 13.1536 32.2155C13.3333 32.1979 13.5362 32.1469 13.6827 32.1101C13.6947 32.1071 13.7063 32.1042 13.7175 32.1014L17.7049 31.1045C17.7229 31.1 17.7413 31.0955 17.7602 31.0908C17.9685 31.0394 18.2322 30.9743 18.474 30.8374C18.7158 30.7005 18.9072 30.5079 19.0585 30.3558C19.0722 30.3419 19.0856 30.3285 19.0987 30.3154L29.2927 20.1213C29.3056 20.1085 29.3184 20.0957 29.3312 20.0829C29.6311 19.7831 29.9226 19.4917 30.1306 19.219C30.3652 18.9116 30.5856 18.5137 30.5856 18C30.5856 17.4863 30.3652 17.0884 30.1306 16.781C29.9226 16.5083 29.6311 16.217 29.3312 15.9172C29.3187 15.9046 29.3062 15.8921 29.2936 15.8796C29.2933 15.8793 29.293 15.879 29.2927 15.8787L28.1212 14.7071C28.1083 14.6943 28.0955 14.6814 28.0827 14.6686C27.7829 14.3687 27.4915 14.0772 27.2189 13.8692C26.9115 13.6347 26.5135 13.4142 25.9998 13.4142C25.4862 13.4142 25.0882 13.6347 24.7808 13.8692C24.5081 14.0772 24.2168 14.3687 23.917 14.6686C23.9042 14.6814 23.8914 14.6943 23.8785 14.7071L13.6844 24.9012C13.6714 24.9143 13.6579 24.9277 13.6441 24.9414C13.4919 25.0926 13.2993 25.2841 13.1624 25.5259L14.0326 26.0186L13.1624 25.5259C13.0255 25.7676 12.9604 26.0313 12.909 26.2396C12.9044 26.2585 12.8998 26.277 12.8953 26.2949L11.8985 30.2823C11.8957 30.2936 11.8928 30.3052 11.8897 30.3172C11.8529 30.4637 11.8019 30.6666 11.7843 30.8462C11.7641 31.0529 11.7574 31.5048 12.1262 31.8736Z" stroke="#FFC656" stroke-width="2"/>
<path d="M22.6665 16L26.6665 13.3334L30.6665 17.3334L27.9998 21.3334L22.6665 16Z" fill="#FFC656"/>
</svg>
