<svg width="44" height="44" viewBox="0 0 44 44" fill="none" xmlns="http://www.w3.org/2000/svg">
<rect width="44" height="44" rx="22" fill="#CCE3FF"/>
<path d="M20 26L20 25" stroke="#FF0000" stroke-width="2" stroke-linecap="round"/>
<path d="M18 14L16 17M26 14L28 17" stroke="#FF0000" stroke-width="2" stroke-linecap="round"/>
<path d="M24 26L24 25" stroke="#FF0000" stroke-width="2" stroke-linecap="round"/>
<path d="M15 21V21C15.5693 21 16.0476 21.4281 16.1104 21.9939L16.6046 26.4417C16.7927 28.1342 16.8867 28.9805 17.4562 29.4903C18.0258 30 18.8772 30 20.5802 30H23.4198C25.1228 30 25.9742 30 26.5438 29.4903C27.1133 28.9805 27.2073 28.1343 27.3954 26.4417L27.8896 21.9939C27.9524 21.4281 28.4307 21 29 21V21" stroke="#FF0000" stroke-width="2" stroke-linecap="round"/>
<path d="M29 21H15C13.8954 21 13 20.1046 13 19C13 17.8954 13.8954 17 15 17H29C30.1046 17 31 17.8954 31 19C31 20.1046 30.1046 21 29 21Z" stroke="#FF0000" stroke-width="2" stroke-linecap="round"/>
</svg>
