<svg width="26" height="24" viewBox="0 0 26 24" fill="none" xmlns="http://www.w3.org/2000/svg">
<path d="M10.2024 4.22613C11.3879 1.40871 11.9807 0 13 0C14.0193 0 14.6121 1.40871 15.7976 4.22613L15.8528 4.35733C16.5226 5.94903 16.8575 6.74488 17.54 7.22861C18.2225 7.71234 19.1184 7.78883 20.9103 7.94181L21.2342 7.96946C24.1668 8.21983 25.6332 8.34502 25.9469 9.23433C26.2607 10.1236 25.1717 11.0681 22.9938 12.9569L22.267 13.5873C21.1645 14.5435 20.6132 15.0216 20.3563 15.6482C20.3084 15.765 20.2685 15.8848 20.237 16.0066C20.0682 16.6599 20.2296 17.3534 20.5524 18.7405L20.6529 19.1723C21.2462 21.7215 21.5429 22.9962 21.0249 23.5459C20.8314 23.7514 20.5798 23.8993 20.3004 23.972C19.5525 24.1665 18.4908 23.3418 16.3673 21.6923C14.9729 20.6091 14.2757 20.0676 13.4753 19.9457C13.1604 19.8978 12.8396 19.8978 12.5247 19.9457C11.7243 20.0676 11.0271 20.6091 9.63273 21.6923C7.50923 23.3418 6.44749 24.1665 5.69964 23.972C5.42019 23.8993 5.16863 23.7514 4.97508 23.5459C4.4571 22.9962 4.75377 21.7215 5.34709 19.1723L5.44758 18.7405C5.77042 17.3534 5.93185 16.6599 5.76296 16.0066C5.73146 15.8848 5.69162 15.765 5.64369 15.6482C5.38676 15.0216 4.83552 14.5435 3.73303 13.5873L3.00616 12.9569C0.828273 11.0681 -0.260672 10.1236 0.0530828 9.23433C0.366838 8.34502 1.83315 8.21983 4.76577 7.96946L5.08971 7.94181C6.88158 7.78883 7.77752 7.71234 8.46003 7.22861C9.14254 6.74488 9.47742 5.94903 10.1472 4.35732L10.2024 4.22613Z" fill="#0dcaf0"/>
</svg>
