<svg width="22" height="20" viewBox="0 0 22 20" fill="currentColor" xmlns="http://www.w3.org/2000/svg">
<path fill-rule="evenodd" clip-rule="evenodd" d="M6.0941 2.18235C6.45359 2.13502 6.81905 2.19536 7.14426 2.35573C7.29385 2.4295 7.43184 2.52292 7.55489 2.63286C7.20233 3.22878 6.99998 3.9241 6.99998 4.66667C6.99998 5.00763 7.04264 5.33863 7.12292 5.65462C6.84045 5.7894 6.52738 5.84998 6.21349 5.82941C5.85167 5.80569 5.505 5.67522 5.21733 5.45448C4.92966 5.23374 4.71391 4.93266 4.59736 4.58931C4.4808 4.24595 4.46868 3.87574 4.56253 3.5255C4.65638 3.17525 4.85198 2.86071 5.12459 2.62163C5.39721 2.38255 5.7346 2.22968 6.0941 2.18235ZM7.80769 1.01042C8.0765 1.14299 8.3247 1.31044 8.54644 1.5073C9.2239 0.980432 10.0753 0.666667 11 0.666667C11.9247 0.666667 12.7761 0.980432 13.4535 1.5073C13.6753 1.31044 13.9235 1.14299 14.1923 1.01042C14.7836 0.718836 15.448 0.609132 16.1017 0.695184C16.7553 0.781236 17.3687 1.05918 17.8644 1.49387C18.3601 1.92856 18.7157 2.50046 18.8863 3.13727C19.0569 3.77408 19.0349 4.44718 18.823 5.07147C18.6111 5.69575 18.2188 6.24317 17.6958 6.64451C17.1727 7.04585 16.5424 7.28308 15.8846 7.3262C15.3172 7.36338 14.7513 7.25475 14.2401 7.0127C13.5132 8.01489 12.3327 8.66667 11 8.66667C9.66725 8.66667 8.48675 8.01489 7.75985 7.0127C7.24865 7.25475 6.68275 7.36338 6.11539 7.3262C5.45753 7.28308 4.82723 7.04585 4.30419 6.64451C3.78116 6.24317 3.38888 5.69575 3.17696 5.07147C2.96505 4.44718 2.94301 3.77408 3.11364 3.13727C3.28427 2.50046 3.63991 1.92856 4.13558 1.49387C4.63124 1.05918 5.24468 0.781236 5.89831 0.695184C6.55194 0.609132 7.21641 0.718836 7.80769 1.01042ZM14.8557 2.35573C15.1809 2.19536 15.5464 2.13502 15.9059 2.18235C16.2654 2.22968 16.6027 2.38255 16.8754 2.62163C17.148 2.86071 17.3436 3.17525 17.4374 3.5255C17.5313 3.87574 17.5192 4.24595 17.4026 4.58931C17.286 4.93266 17.0703 5.23374 16.7826 5.45448C16.495 5.67522 16.1483 5.80569 15.7865 5.82941C15.4726 5.84998 15.1595 5.7894 14.877 5.65462C14.9573 5.33863 15 5.00763 15 4.66667C15 3.92409 14.7976 3.22878 14.4451 2.63286C14.5681 2.52292 14.7061 2.4295 14.8557 2.35573ZM13.5 4.66667C13.5 6.04738 12.3807 7.16667 11 7.16667C9.61927 7.16667 8.49998 6.04738 8.49998 4.66667C8.49998 3.28595 9.61927 2.16667 11 2.16667C12.3807 2.16667 13.5 3.28595 13.5 4.66667ZM4.48916 17.7674C4.62127 16.7488 4.98284 15.1397 5.94278 13.8022C6.04692 13.6571 6.15844 13.5146 6.27805 13.376C7.04846 12.4862 8.13556 11.7767 9.67356 11.5211L9.68792 11.5187C10.0917 11.4524 10.5281 11.4167 11.0001 11.4167C11.4703 11.4167 11.9052 11.4522 12.3078 11.518L12.3265 11.5211C13.877 11.7787 14.9693 12.4978 15.7408 13.3978C15.8533 13.5296 15.9587 13.6647 16.0573 13.8022C16.5523 14.4918 16.8882 15.2537 17.1155 15.9696C17.1409 16.0496 17.165 16.1293 17.1879 16.2084L17.1973 16.2409C17.3601 16.811 17.4557 17.341 17.511 17.7674C17.5161 17.8075 17.5056 17.8348 17.4822 17.8597C17.4552 17.8883 17.4052 17.9167 17.3334 17.9167H4.66673C4.59495 17.9167 4.54495 17.8883 4.51796 17.8597C4.49452 17.8348 4.48397 17.8075 4.48916 17.7674ZM9.82072 9.9852C8.96006 9.1637 7.81459 8.58334 6.33341 8.58334C4.28055 8.58334 2.89241 9.69277 1.99735 10.9883C1.11629 12.2637 0.67144 13.7681 0.454647 14.7516C0.212943 15.8481 1.08749 16.75 2.10506 16.75H3.13752C3.07671 17.0536 3.03308 17.3319 3.00162 17.5745C2.86565 18.623 3.71602 19.4167 4.66673 19.4167H17.3334C18.2841 19.4167 19.1345 18.623 18.9985 17.5745C18.967 17.3319 18.9234 17.0536 18.8626 16.75H19.895C20.9125 16.75 21.7871 15.8481 21.5454 14.7516C21.3286 13.7681 20.8838 12.2637 20.0027 10.9884C19.1077 9.69277 17.7195 8.58334 15.6667 8.58334C14.1855 8.58334 13.04 9.1637 12.1793 9.98519C11.8058 9.94031 11.413 9.91667 11.0001 9.91667C10.5871 9.91667 10.1942 9.94031 9.82072 9.9852ZM5.15472 12.3821C5.84164 11.5884 6.74038 10.8944 7.91473 10.4463C7.46122 10.2166 6.93943 10.0833 6.33341 10.0833C4.91425 10.0833 3.93746 10.819 3.23147 11.841C2.51147 12.8831 2.11916 14.1686 1.91948 15.0745C1.90906 15.1217 1.91998 15.1549 1.94527 15.1843C1.97402 15.2178 2.02749 15.25 2.10506 15.25H3.54307C3.80737 14.4872 4.1847 13.6792 4.72415 12.9276C4.85791 12.7412 5.00126 12.5589 5.15472 12.3821ZM17.276 12.9276C17.8154 13.6792 18.1928 14.4872 18.4571 15.25H19.895C19.9725 15.25 20.026 15.2178 20.0548 15.1843C20.08 15.1549 20.091 15.1217 20.0805 15.0745C19.8809 14.1686 19.4886 12.8831 18.7686 11.841C18.0626 10.819 17.0858 10.0833 15.6667 10.0833C15.0606 10.0833 14.5388 10.2166 14.0853 10.4463C15.2481 10.89 16.1407 11.5748 16.825 12.3587C16.9862 12.5428 17.1363 12.733 17.276 12.9276Z"/>
</svg>
