<svg width="25" height="34" viewBox="0 0 25 34" fill="none" xmlns="http://www.w3.org/2000/svg">
<g clip-path="url(#clip0_5_2)">
<rect x="6" y="7" width="12" height="11" fill="white"/>
<path d="M14.043 32.5C17.3828 28.3203 25 18.1901 25 12.5C25 5.59896 19.401 0 12.5 0C5.59896 0 0 5.59896 0 12.5C0 18.1901 7.61719 28.3203 10.957 32.5C11.7578 33.4961 13.2422 33.4961 14.043 32.5ZM12.5 8.33333C13.6051 8.33333 14.6649 8.77232 15.4463 9.55372C16.2277 10.3351 16.6667 11.3949 16.6667 12.5C16.6667 13.6051 16.2277 14.6649 15.4463 15.4463C14.6649 16.2277 13.6051 16.6667 12.5 16.6667C11.3949 16.6667 10.3351 16.2277 9.55372 15.4463C8.77232 14.6649 8.33333 13.6051 8.33333 12.5C8.33333 11.3949 8.77232 10.3351 9.55372 9.55372C10.3351 8.77232 11.3949 8.33333 12.5 8.33333Z" fill="#00754A"/>
</g>
<defs>
<clipPath id="clip0_5_2">
<rect width="25" height="34" fill="white"/>
</clipPath>
</defs>
</svg>
